# xmcd
#
# Track frame offsets: 
#        150
#        16225
#        29565
#        42992
#        57325
#        71115
#        81125
#        95382
#        110772
#        128137
#        141267
#        155895
#
# Disc length: 2219 seconds
#
# Revision: 0
# Processed by: cddbd v1.5.2PL0 Copyright (c) Steve Scherf et al.
# Submitted via: ExactAudioCopyFreeDBPlugin 1.0
#
DISCID=ac08a90c
DTITLE=พรศักดิ์ ส่องแสง - รวมลูกทุ่งฮ็อต 2
DYEAR=1900
DGENRE=
TTITLE0=มาลัยใจดำ
TTITLE1=หนุมนานครพนม
TTITLE2=รักสาว ปกศ
TTITLE3=เปลี่ยวใจไกลแฟน
TTITLE4=หมอแคนยังคอย
TTITLE5=ผู้ชายพายเรือ
TTITLE6=ฝากใจไปสิงคโปร์
TTITLE7=สามวันบิน
TTITLE8=เฟื่องฟ้า
TTITLE9=ครวญหาบัวคำ
TTITLE10=บัวทองร้องไห้
TTITLE11=ฝากความคิดถึง
EXTD=
EXTT0=
EXTT1=
EXTT2=
EXTT3=
EXTT4=
EXTT5=
EXTT6=
EXTT7=
EXTT8=
EXTT9=
EXTT10=
EXTT11=
PLAYORDER=
